<svg xmlns="http://www.w3.org/2000/svg" version="1.1" xmlns:xlink="http://www.w3.org/1999/xlink" xmlns:svgjs="http://svgjs.dev/svgjs" width="1500" height="1500" viewBox="0 0 1500 1500"><rect width="1500" height="1500" fill="#f3f3b7"></rect><g transform="matrix(0.6666666666666666,0,0,0.6666666666666666,249.39393939393938,511.59202113248)"><svg viewBox="0 0 396 189" data-background-color="#f3f3b7" preserveAspectRatio="xMidYMid meet" height="715" width="1500" xmlns="http://www.w3.org/2000/svg" xmlns:xlink="http://www.w3.org/1999/xlink"><g id="tight-bounds" transform="matrix(1,0,0,1,0.2400000000000091,0.029597215303425628)"><svg viewBox="0 0 395.52 188.9408055693931" height="188.9408055693931" width="395.52"><g><svg viewBox="0 0 397.4975999999999 189.88550959724003" height="188.9408055693931" width="395.52"><g><rect width="397.4975999999999" height="5.815942364948141" x="0" y="104.3527286104447" fill="#301c3b" opacity="1" stroke-width="0" stroke="transparent" fill-opacity="1" class="rect-qz-0" data-fill-palette-color="primary" rx="1%" id="qz-0" data-palette-color="#301c3b"></rect></g><g transform="matrix(1,0,0,1,0.9887999999999693,125.3936509883461)"><svg viewBox="0 0 395.52 64.49185860889395" height="64.49185860889395" width="395.52"><g id="textblocktransform"><svg viewBox="0 0 395.52 64.49185860889395" height="64.49185860889395" width="395.52" id="textblock"><g><svg viewBox="0 0 395.52 64.49185860889395" height="64.49185860889395" width="395.52"><g transform="matrix(1,0,0,1,0,0)"><svg width="395.52" viewBox="1.6 -36.05 306.90999999999997 50.05" height="64.49185860889395" data-palette-color="#301c3b"><path d="M12.5 4.35L12.5 4.35Q8.7 4.35 6.28 2.55 3.85 0.75 2.73-2.1 1.6-4.95 1.6-8L1.6-8Q1.6-11.95 2.8-15.93 4-19.9 6.13-23.5 8.25-27.1 10.95-29.9 13.65-32.7 16.73-34.33 19.8-35.95 22.85-35.95L22.85-35.95Q25.05-35.95 26.55-34.93 28.05-33.9 28.05-31.4L28.05-31.4Q28.05-29.9 27.53-28.05 27-26.2 26.13-24.48 25.25-22.75 24.15-21.65 23.05-20.55 21.9-20.55L21.9-20.55Q21.4-20.55 20.85-20.9 20.3-21.25 19.85-22.1L19.85-22.1Q20.6-22.95 21.55-24.18 22.5-25.4 23.35-26.78 24.2-28.15 24.75-29.48 25.3-30.8 25.3-31.8L25.3-31.8Q25.3-32.7 24.8-33.23 24.3-33.75 23.05-33.75L23.05-33.75Q20.85-33.75 18.53-32.1 16.2-30.45 14.05-27.68 11.9-24.9 10.18-21.48 8.45-18.05 7.45-14.43 6.45-10.8 6.45-7.55L6.45-7.55Q6.45-5.15 7.18-2.98 7.9-0.8 9.5 0.58 11.1 1.95 13.7 1.95L13.7 1.95Q16.4 1.95 19.07 0.45 21.75-1.05 23.98-3.5 26.2-5.95 27.55-8.75L27.55-8.75 28.85-7.9Q27.1-4.55 24.65-1.78 22.2 1 19.13 2.68 16.05 4.35 12.5 4.35ZM30.15 1.5L30.15 1.5Q28.45 1.5 27.37-0.08 26.3-1.65 26.3-3.7L26.3-3.7Q26.3-5.1 26.75-7 27.2-8.9 27.92-10.7 28.65-12.5 29.42-13.7 30.2-14.9 30.85-14.9L30.85-14.9Q31.2-14.9 31.92-14.53 32.65-14.15 33.2-13.6L33.2-13.6Q32.65-12.8 31.87-11.15 31.1-9.5 30.5-7.6 29.9-5.7 29.9-4.15L29.9-4.15Q29.9-3.95 29.97-3.2 30.05-2.45 30.35-1.8 30.65-1.15 31.4-1.15L31.4-1.15Q32.25-1.15 33.22-2.08 34.2-3 35.22-4.48 36.25-5.95 37.22-7.65 38.2-9.35 38.97-10.95 39.75-12.55 40.25-13.65L40.25-13.65Q40.7-13.6 41.42-13.4 42.15-13.2 42.7-12.88 43.25-12.55 43.25-11.95L43.25-11.95Q43.25-11.8 42.77-10.73 42.3-9.65 41.67-8.15 41.05-6.65 40.57-5.08 40.1-3.5 40.1-2.3L40.1-2.3Q40.1-1.6 40.37-1.07 40.65-0.55 41.45-0.55L41.45-0.55Q42.5-0.55 43.95-1.5 45.4-2.45 46.95-4.25 48.5-6.05 49.7-8.55L49.7-8.55 50.45-7.95Q49.35-5.25 47.6-3.1 45.85-0.95 43.85 0.28 41.85 1.5 39.95 1.5L39.95 1.5Q38.5 1.5 37.77 0.83 37.05 0.15 36.8-0.93 36.55-2 36.5-3.1L36.5-3.1Q36.5-3.35 36.5-3.63 36.5-3.9 36.5-4.1L36.5-4.1Q35.65-2.75 34.65-1.48 33.65-0.2 32.52 0.65 31.4 1.5 30.15 1.5ZM52.4 1.5L52.4 1.5Q50.2 1.5 49.1 0.2 48-1.1 48-2.95L48-2.95Q48-4.1 48.4-5.85 48.8-7.6 49.52-9.53 50.25-11.45 51.2-13.15 52.15-14.85 53.25-15.93 54.35-17 55.45-17L55.45-17Q56.05-17 56.5-16.65 56.95-16.3 56.95-15.55L56.95-15.55Q56.95-14.9 56.17-13.6 55.4-12.3 54.37-10.6 53.35-8.9 52.57-7.08 51.8-5.25 51.8-3.6L51.8-3.6Q51.8-2 52.37-1.48 52.95-0.95 54.05-0.95L54.05-0.95Q55.75-0.95 57.75-2.65 59.75-4.35 61.9-8.6L61.9-8.6 62.65-7.8Q60.9-3.4 58.2-0.95 55.5 1.5 52.4 1.5ZM58.3-21.05L58.3-21.05Q57.35-21.05 56.57-21.53 55.8-22 55.8-23L55.8-23Q55.8-24.2 57.1-25.05 58.4-25.9 59.8-25.9L59.8-25.9Q60.7-25.9 61.32-25.5 61.95-25.1 61.95-24.05L61.95-24.05Q61.95-23 60.8-22.03 59.65-21.05 58.3-21.05ZM66.44 2.55L66.44 2.55Q63.94 2.55 62.42 1.53 60.89 0.5 60.24-1.07 59.59-2.65 59.59-4.3L59.59-4.3Q59.59-5.75 59.99-6.55 60.39-7.35 60.99-7.73 61.59-8.1 62.12-8.3 62.64-8.5 62.89-8.75L62.89-8.75Q64.14-10.05 65.47-11.78 66.79-13.5 67.74-15.6L67.74-15.6 67.74-16.1Q67.74-18.1 68.42-18.93 69.09-19.75 69.99-19.75L69.99-19.75Q70.59-19.75 70.87-19.45 71.14-19.15 71.19-18.75L71.19-18.75Q71.19-18.45 71.07-18.05 70.94-17.65 70.94-16.95L70.94-16.95Q70.94-15.45 71.67-13.53 72.39-11.6 73.12-9.45 73.84-7.3 73.84-5.05L73.84-5.05Q73.84-4.45 73.79-3.95 73.74-3.45 73.64-3L73.64-3Q75.19-3.4 76.69-4.73 78.19-6.05 79.54-8.65L79.54-8.65 80.14-8.2Q79.19-5.35 77.39-3.63 75.59-1.9 73.19-1.5L73.19-1.5Q72.39 0.55 70.57 1.55 68.74 2.55 66.44 2.55ZM66.09 0.35L66.09 0.35Q67.09 0.35 67.94-0.15 68.79-0.65 69.29-1.6L69.29-1.6Q67.24-2.05 65.59-3.2 63.94-4.35 63.04-5.55L63.04-5.55Q62.34-5.4 62.34-4.2L62.34-4.2Q62.34-2.55 63.29-1.1 64.24 0.35 66.09 0.35ZM69.69-3.1L69.69-3.1Q69.79-3.45 69.82-3.93 69.84-4.4 69.84-4.65L69.84-4.65Q69.79-6.9 69.24-9.1 68.69-11.3 68.14-13.6L68.14-13.6Q67.24-12.05 66.04-10.25 64.84-8.45 63.79-7.35L63.79-7.35Q64.59-6 66.14-4.8 67.69-3.6 69.69-3.1ZM82.14 1.5L82.14 1.5Q79.94 1.5 78.84 0.2 77.74-1.1 77.74-2.95L77.74-2.95Q77.74-4.1 78.14-5.85 78.54-7.6 79.27-9.53 79.99-11.45 80.94-13.15 81.89-14.85 82.99-15.93 84.09-17 85.19-17L85.19-17Q85.79-17 86.24-16.65 86.69-16.3 86.69-15.55L86.69-15.55Q86.69-14.9 85.92-13.6 85.14-12.3 84.12-10.6 83.09-8.9 82.32-7.08 81.54-5.25 81.54-3.6L81.54-3.6Q81.54-2 82.12-1.48 82.69-0.95 83.79-0.95L83.79-0.95Q85.49-0.95 87.49-2.65 89.49-4.35 91.64-8.6L91.64-8.6 92.39-7.8Q90.64-3.4 87.94-0.95 85.24 1.5 82.14 1.5ZM88.04-21.05L88.04-21.05Q87.09-21.05 86.32-21.53 85.54-22 85.54-23L85.54-23Q85.54-24.2 86.84-25.05 88.14-25.9 89.54-25.9L89.54-25.9Q90.44-25.9 91.07-25.5 91.69-25.1 91.69-24.05L91.69-24.05Q91.69-23 90.54-22.03 89.39-21.05 88.04-21.05ZM107.19 1L107.19 1Q105.24 1 104.21 0.03 103.19-0.95 103.19-2.45L103.19-2.45Q103.19-3.45 103.54-4.58 103.89-5.7 104.24-6.85 104.59-8 104.59-9.05L104.59-9.05Q104.59-10.15 104.06-10.58 103.54-11 102.84-11L102.84-11Q101.34-11 99.76-9.78 98.19-8.55 96.71-6.7 95.24-4.85 93.94-2.85 92.64-0.85 91.69 0.75L91.69 0.75Q90.74 0.75 89.89 0.43 89.04 0.1 88.44-0.7L88.44-0.7Q88.49-0.95 89.01-2.23 89.54-3.5 90.19-5.28 90.84-7.05 91.34-9 91.84-10.95 91.84-12.55L91.84-12.55Q92.19-12.95 92.91-13.35 93.64-13.75 94.44-13.75L94.44-13.75Q96.19-13.75 96.19-12.25L96.19-12.25Q96.19-11.65 95.96-10.48 95.74-9.3 95.34-7.8L95.34-7.8Q96.64-9.55 98.19-11.1 99.74-12.65 101.41-13.63 103.09-14.6 104.79-14.6L104.79-14.6Q106.94-14.6 107.96-13.15 108.99-11.7 108.99-9.95L108.99-9.95Q108.99-8.45 108.49-7.15 107.99-5.85 107.51-4.7 107.04-3.55 107.04-2.45L107.04-2.45Q107.04-1.65 107.41-1.33 107.79-1 108.24-1L108.24-1Q109.44-1 110.74-2.15 112.04-3.3 113.21-5.08 114.39-6.85 115.29-8.65L115.29-8.65 116.14-7.95Q115.09-5.5 113.76-3.48 112.44-1.45 110.81-0.23 109.19 1 107.19 1ZM119.79 2.2L119.79 2.2Q116.59 2.2 114.86 0.48 113.14-1.25 113.14-3.85L113.14-3.85Q113.14-6.05 114.26-8.53 115.39-11 117.29-13.18 119.19-15.35 121.49-16.7 123.79-18.05 126.09-18.05L126.09-18.05Q127.39-18.05 128.56-17.38 129.74-16.7 129.74-14.7L129.74-14.7Q129.74-12.8 128.64-11.15 127.54-9.5 125.69-8.2 123.84-6.9 121.61-6.08 119.39-5.25 117.14-5L117.14-5Q117.09-4.8 117.06-4.58 117.04-4.35 117.04-3.85L117.04-3.85Q117.04-3.6 117.11-2.98 117.19-2.35 117.54-1.65 117.89-0.95 118.69-0.45 119.49 0.05 120.89 0.05L120.89 0.05Q122.99 0.05 125.11-1.13 127.24-2.3 129.11-4.25 130.99-6.2 132.24-8.6L132.24-8.6 133.24-7.8Q131.89-4.8 129.76-2.55 127.64-0.3 125.06 0.95 122.49 2.2 119.79 2.2ZM117.69-6.85L117.69-6.85Q118.99-7 120.59-7.75 122.19-8.5 123.66-9.65 125.14-10.8 126.09-12.18 127.04-13.55 127.04-14.95L127.04-14.95Q127.04-15.5 126.84-15.7 126.64-15.9 126.19-15.9L126.19-15.9Q125.04-15.9 123.79-15.08 122.54-14.25 121.34-12.93 120.14-11.6 119.19-10 118.24-8.4 117.69-6.85ZM136.68 2.8L136.68 2.8Q134.08 2.8 132.41 1.18 130.73-0.45 130.73-3.8L130.73-3.8Q130.73-6.25 131.68-8.6 132.63-10.95 134.23-12.83 135.83-14.7 137.81-15.8 139.78-16.9 141.83-16.9L141.83-16.9Q143.93-16.9 144.86-15.85 145.78-14.8 145.78-13.4L145.78-13.4Q145.78-12 145.11-10.68 144.43-9.35 143.28-9.35L143.28-9.35Q142.33-9.35 141.73-10.3L141.73-10.3Q142.23-10.65 142.78-11.6 143.33-12.55 143.33-14.05L143.33-14.05Q143.33-14.45 143.13-14.68 142.93-14.9 142.38-14.9L142.38-14.9Q141.13-14.9 139.76-13.78 138.38-12.65 137.21-10.88 136.03-9.1 135.31-7.13 134.58-5.15 134.58-3.5L134.58-3.5Q134.58-2.1 135.31-0.93 136.03 0.25 138.13 0.25L138.13 0.25Q140.03 0.25 142.08-0.85 144.13-1.95 145.93-3.93 147.73-5.9 148.83-8.65L148.83-8.65 149.83-7.75Q148.63-4.7 146.51-2.33 144.38 0.05 141.81 1.43 139.23 2.8 136.68 2.8ZM156.93 1.3L156.93 1.3Q155.08 1.3 153.93 0.33 152.78-0.65 152.78-2.3L152.78-2.3Q152.78-3.7 153.48-5.3 154.18-6.9 154.91-8.45 155.63-10 155.63-11.2L155.63-11.2Q155.63-12.35 154.88-13.13 154.13-13.9 153.13-14.4L153.13-14.4Q152.03-11.65 150.66-9.08 149.28-6.5 148.43-5.05L148.43-5.05 147.68-6.5Q148.38-7.8 149.53-10.2 150.68-12.6 151.73-15.55L151.73-15.55Q151.23-16.05 151.23-16.9L151.23-16.9Q151.23-18.2 152.03-19.35 152.83-20.5 153.58-20.5L153.58-20.5Q154.18-20.5 154.46-19.83 154.73-19.15 154.73-18.9L154.73-18.9Q154.73-18.65 154.51-18 154.28-17.35 154.18-17.05L154.18-17.05Q154.23-16.5 155.06-15.98 155.88-15.45 156.93-14.75 157.98-14.05 158.78-13 159.58-11.95 159.58-10.35L159.58-10.35Q159.58-8.9 158.93-7.4 158.28-5.9 157.63-4.6 156.98-3.3 156.98-2.35L156.98-2.35Q156.98-1.65 157.36-1.43 157.73-1.2 158.23-1.2L158.23-1.2Q159.43-1.2 160.73-1.93 162.03-2.65 163.28-3.8 164.53-4.95 165.48-6.23 166.43-7.5 166.93-8.55L166.93-8.55 168.13-7.65Q167.18-5.5 165.38-3.43 163.58-1.35 161.38-0.03 159.18 1.3 156.93 1.3ZM168.63 2.35L168.63 2.35Q166.98 2.35 165.75 1.25 164.53 0.15 164.53-2.05L164.53-2.05Q164.53-3.8 165.33-5.85 166.13-7.9 167.53-9.9 168.93-11.9 170.73-13.53 172.53-15.15 174.58-16.15 176.63-17.15 178.68-17.15L178.68-17.15Q180.83-17.15 182.33-16.05 183.83-14.95 183.83-13.15L183.83-13.15Q183.83-11.8 182.88-11.2 181.93-10.6 180.63-10.85L180.63-10.85Q180.73-11.3 180.8-11.75 180.88-12.2 180.88-12.7L180.88-12.7Q180.88-13.7 180.48-14.5 180.08-15.3 178.78-15.3L178.78-15.3Q177.38-15.3 175.93-14.35 174.48-13.4 173.15-11.88 171.83-10.35 170.78-8.53 169.73-6.7 169.13-4.95 168.53-3.2 168.53-1.8L168.53-1.8Q168.53-0.2 169.68-0.2L169.68-0.2Q170.83-0.2 172.23-1.33 173.63-2.45 175.05-4.15 176.48-5.85 177.78-7.63 179.08-9.4 180.03-10.65L180.03-10.65Q180.18-10.9 180.43-10.9L180.43-10.9Q180.63-10.85 181.2-10.68 181.78-10.5 182.28-10.15 182.78-9.8 182.78-9.25L182.78-9.25Q182.78-8.75 182.35-7.98 181.93-7.2 181.35-6.28 180.78-5.35 180.35-4.42 179.93-3.5 179.93-2.65L179.93-2.65Q179.93-2 180.28-1.43 180.63-0.85 181.43-0.85L181.43-0.85Q182.63-0.85 184.8-2.63 186.98-4.4 189.23-8.65L189.23-8.65 190.18-7.7Q188.98-5 187.3-2.93 185.63-0.85 183.78 0.33 181.93 1.5 180.03 1.5L180.03 1.5Q177.98 1.5 176.98 0.2 175.98-1.1 175.88-2.6L175.88-2.6Q175.88-2.7 175.88-2.75 175.88-2.8 175.88-2.85L175.88-2.85Q173.88-0.45 172.2 0.95 170.53 2.35 168.63 2.35ZM187.98 14L187.98 14Q187.43 14 186.65 13.65 185.88 13.3 185.3 12.28 184.73 11.25 184.73 9.2L184.73 9.2Q184.73 7.05 185.45 3.58 186.18 0.1 187.45-4.13 188.73-8.35 190.45-12.8 192.18-17.25 194.15-21.38 196.13-25.5 198.25-28.8 200.38-32.1 202.48-34.05 204.58-36 206.53-36L206.53-36Q207.83-36 208.23-35.23 208.63-34.45 208.63-33.45L208.63-33.45Q208.63-31.3 207.45-28.75 206.28-26.2 204.33-23.63 202.38-21.05 199.95-18.75 197.53-16.45 194.98-14.8L194.98-14.8Q194.78-14.3 194.58-13.8 194.38-13.3 194.18-12.8L194.18-12.8Q194.73-12.6 195.05-12.1 195.38-11.6 195.43-11.05L195.43-11.05Q195.83-8.9 196.23-7.23 196.63-5.55 197.45-4.6 198.28-3.65 199.83-3.65L199.83-3.65Q201.58-3.65 202.93-4.95 204.28-6.25 205.68-8.6L205.68-8.6 206.78-7.8Q205.18-4.6 203.18-3.13 201.18-1.65 199.58-1.65L199.58-1.65Q198.73-1.65 197.8-2 196.88-2.35 196.03-3L196.03-3Q195.98 0.1 195.3 3.13 194.63 6.15 193.48 8.6 192.33 11.05 190.9 12.53 189.48 14 187.98 14ZM189.38 10.9L189.38 10.9Q189.93 10.9 190.55 9.95 191.18 9 191.78 7.45 192.38 5.9 192.88 4.03 193.38 2.15 193.68 0.33 193.98-1.5 193.98-3L193.98-3Q193.98-4.45 193.65-5.58 193.33-6.7 192.53-8.1L192.53-8.1Q191.38-4.65 190.48-1.45 189.58 1.75 189.08 4.38 188.58 7 188.58 8.75L188.58 8.75Q188.58 10.9 189.38 10.9ZM196.43-18.3L196.43-18.3Q199.48-21.15 201.63-23.85 203.78-26.55 204.9-28.63 206.03-30.7 206.03-31.55L206.03-31.55Q206.03-31.95 205.63-31.95L205.63-31.95Q204.43-31.95 202.88-30.13 201.33-28.3 199.68-25.2 198.03-22.1 196.43-18.3ZM209.07 2.3L209.07 2.3Q206.87 2.3 205.52 1 204.17-0.3 204.17-2.95L204.17-2.95Q204.17-5 204.95-8.05 205.72-11.1 206.92-14.35L206.92-14.35Q206.57-14.45 206.1-14.53 205.62-14.6 205.17-14.8L205.17-14.8 205.17-16.35Q205.97-16.25 206.5-16.2 207.02-16.15 207.57-16.1L207.57-16.1Q208.62-18.75 209.85-21.23 211.07-23.7 212.3-25.65 213.52-27.6 214.62-28.73 215.72-29.85 216.57-29.85L216.57-29.85Q217.07-29.85 217.52-29.48 217.97-29.1 217.97-28.4L217.97-28.4Q217.97-27.4 216.95-25.55 215.92-23.7 214.42-21.23 212.92-18.75 211.52-15.95L211.52-15.95Q211.92-15.95 212.32-15.95 212.72-15.95 213.07-15.95L213.07-15.95Q215.27-15.95 217.05-16.03 218.82-16.1 220.67-16.3L220.67-16.3 220.67-14.65Q217.92-14.4 215.62-14.25 213.32-14.1 211.22-14.05L211.22-14.05Q211.07-14.05 210.92-14.05 210.77-14.05 210.62-14.05L210.62-14.05Q209.57-11.6 208.8-9.03 208.02-6.45 208.02-4L208.02-4Q208.02-1.95 208.67-1.1 209.32-0.25 210.72-0.25L210.72-0.25Q213.22-0.25 215.85-2.53 218.47-4.8 220.42-8.7L220.42-8.7 221.12-8.2Q219.82-5.25 217.9-2.85 215.97-0.45 213.72 0.93 211.47 2.3 209.07 2.3ZM235.52 4.35L235.52 4.35Q235.82 2.55 236.19 0.7 236.57-1.15 237.14-3.4 237.72-5.65 238.59-8.55 239.47-11.45 240.72-15.3L240.72-15.3Q239.97-15.25 239.09-15.15 238.22-15.05 237.47-15L237.47-15Q237.47-16.6 238.67-17.45 239.87-18.3 241.82-18.7L241.82-18.7Q242.02-19.4 242.17-19.8 242.32-20.2 242.52-20.8 242.72-21.4 243.12-22.48 243.52-23.55 244.19-25.55 244.87-27.55 245.97-30.8L245.97-30.8Q246.07-31.05 246.32-31.8 246.57-32.55 246.57-33.2L246.57-33.2Q246.57-33.6 246.44-33.75 246.32-33.9 245.92-33.9L245.92-33.9Q244.92-33.9 243.89-33 242.87-32.1 242.02-30.73 241.17-29.35 240.67-27.88 240.17-26.4 240.17-25.25L240.17-25.25Q240.17-24.85 240.27-24.35 240.37-23.85 240.67-23L240.67-23Q238.57-23 237.64-23.93 236.72-24.85 236.72-26.3L236.72-26.3Q236.72-28 237.74-29.7 238.77-31.4 240.39-32.83 242.02-34.25 243.84-35.13 245.67-36 247.22-36L247.22-36Q248.82-36 249.42-35.15 250.02-34.3 250.02-33.25L250.02-33.25Q250.02-32.7 249.89-32.15 249.77-31.6 249.62-31.1L249.62-31.1 245.97-19.1Q246.57-19.15 247.19-19.15 247.82-19.15 248.47-19.15L248.47-19.15Q250.92-19.15 253.07-19.05 255.22-18.95 257.22-18.75L257.22-18.75Q258.47-22.95 259.34-25.65 260.22-28.35 260.89-30.13 261.57-31.9 262.12-33.25L262.12-33.25Q262.32-33.65 262.69-34.33 263.07-35 263.79-35.52 264.52-36.05 265.72-36.05L265.72-36.05Q265.07-34.3 264.14-31.43 263.22-28.55 262.27-25.18 261.32-21.8 260.47-18.5L260.47-18.5Q261.17-18.5 262.44-18.43 263.72-18.35 264.82-18.35L264.82-18.35Q263.27-16.8 262.07-16.43 260.87-16.05 259.87-16.05L259.87-16.05Q259.32-13.75 258.87-11.65 258.42-9.55 258.12-7.75L258.12-7.75Q257.52-4.55 257.24-2.18 256.97 0.2 256.97 1.7L256.97 1.7Q256.97 2.5 257.04 3.13 257.12 3.75 257.22 4.35L257.22 4.35Q254.67 4.1 253.74 3.13 252.82 2.15 252.82-0.3L252.82-0.3Q252.82-1.45 252.99-2.85 253.17-4.25 253.62-6.15L253.62-6.15Q254.02-8 254.72-10.4 255.42-12.8 256.42-16L256.42-16Q253.37-16 251.37-15.95 249.37-15.9 247.87-15.85 246.37-15.8 244.87-15.65L244.87-15.65Q244.82-15.45 244.62-14.8 244.42-14.15 243.92-12.5 243.42-10.85 242.42-7.65 241.42-4.45 239.72 0.95L239.72 0.95Q239.17 2.8 237.82 3.58 236.47 4.35 235.52 4.35ZM267.77 1.5L267.77 1.5Q266.07 1.5 264.99-0.08 263.92-1.65 263.92-3.7L263.92-3.7Q263.92-5.1 264.37-7 264.82-8.9 265.54-10.7 266.27-12.5 267.04-13.7 267.82-14.9 268.47-14.9L268.47-14.9Q268.82-14.9 269.54-14.53 270.27-14.15 270.82-13.6L270.82-13.6Q270.27-12.8 269.49-11.15 268.72-9.5 268.12-7.6 267.52-5.7 267.52-4.15L267.52-4.15Q267.52-3.95 267.59-3.2 267.67-2.45 267.97-1.8 268.27-1.15 269.02-1.15L269.02-1.15Q269.87-1.15 270.84-2.08 271.82-3 272.84-4.48 273.87-5.95 274.84-7.65 275.82-9.35 276.59-10.95 277.37-12.55 277.87-13.65L277.87-13.65Q278.32-13.6 279.04-13.4 279.77-13.2 280.32-12.88 280.87-12.55 280.87-11.95L280.87-11.95Q280.87-11.8 280.39-10.73 279.92-9.65 279.29-8.15 278.67-6.65 278.19-5.08 277.72-3.5 277.72-2.3L277.72-2.3Q277.72-1.6 277.99-1.07 278.27-0.55 279.07-0.55L279.07-0.55Q280.12-0.55 281.57-1.5 283.02-2.45 284.57-4.25 286.12-6.05 287.32-8.55L287.32-8.55 288.07-7.95Q286.97-5.25 285.22-3.1 283.47-0.95 281.47 0.28 279.47 1.5 277.57 1.5L277.57 1.5Q276.12 1.5 275.39 0.83 274.67 0.15 274.42-0.93 274.17-2 274.12-3.1L274.12-3.1Q274.12-3.35 274.12-3.63 274.12-3.9 274.12-4.1L274.12-4.1Q273.27-2.75 272.27-1.48 271.27-0.2 270.14 0.65 269.02 1.5 267.77 1.5ZM291.26 3.65L291.26 3.65Q288.41 3.65 286.94 1.88 285.46 0.1 285.46-3L285.46-3Q285.46-5.45 286.31-8.8 287.16-12.15 288.56-15.83 289.96-19.5 291.69-23.03 293.41-26.55 295.21-29.43 297.01-32.3 298.61-34 300.21-35.7 301.36-35.7L301.36-35.7Q302.36-35.7 302.86-34.55 303.36-33.4 303.41-32.25L303.41-32.25Q303.41-30.85 302.81-28.85 302.21-26.85 301.11-24.6 300.01-22.35 298.56-20.15 297.11-17.95 295.39-16.15 293.66-14.35 291.81-13.3L291.81-13.3Q291.46-12.65 290.94-11.05 290.41-9.45 289.99-7.4 289.56-5.35 289.56-3.3L289.56-3.3Q289.56-1.3 290.14 0.13 290.71 1.55 292.16 1.55L292.16 1.55Q293.46 1.55 294.96 0.35 296.46-0.85 297.41-2.55L297.41-2.55Q295.56-3.55 294.61-5.35 293.66-7.15 293.66-9.15L293.66-9.15Q293.66-11.6 294.99-13.1 296.31-14.6 298.21-14.6L298.21-14.6Q299.81-14.6 300.86-13.38 301.91-12.15 301.91-9.6L301.91-9.6Q301.91-8.15 301.54-6.53 301.16-4.9 300.41-3.3L300.41-3.3Q300.66-3.3 300.84-3.28 301.01-3.25 301.31-3.25L301.31-3.25Q303.06-3.25 304.31-4.2 305.56-5.15 306.41-6.45 307.26-7.75 307.76-8.8L307.76-8.8 308.51-7.75Q307.26-4.8 305.44-3.25 303.61-1.7 300.66-1.7L300.66-1.7Q300.41-1.7 300.14-1.7 299.86-1.7 299.61-1.75L299.61-1.75Q298.21 0.5 296.14 2.08 294.06 3.65 291.26 3.65ZM298.26-4.2L298.26-4.2Q298.71-5.2 298.94-6.23 299.16-7.25 299.16-8.45L299.16-8.45Q299.16-10.25 298.74-11.1 298.31-11.95 297.71-11.95L297.71-11.95Q297.06-11.95 296.59-11.05 296.11-10.15 296.11-8.9L296.11-8.9Q296.11-7.85 296.56-6.45 297.01-5.05 298.26-4.2ZM292.76-16.45L292.76-16.45Q294.01-17.6 295.19-19.13 296.36-20.65 297.39-22.33 298.41-24 299.19-25.63 299.96-27.25 300.46-28.58 300.96-29.9 301.06-30.7L301.06-30.7Q301.06-30.8 301.06-30.88 301.06-30.95 301.06-31L301.06-31Q300.61-30.85 299.59-29.55 298.56-28.25 297.29-26.18 296.01-24.1 294.81-21.58 293.61-19.05 292.76-16.45Z" opacity="1" transform="matrix(1,0,0,1,0,0)" fill="#301c3b" class="wordmark-text-0" data-fill-palette-color="primary" id="text-0"></path></svg></g></svg></g></svg></g></svg></g><g transform="matrix(1,0,0,1,166.98924207662986,0)"><svg viewBox="0 0 63.519115846740206 89.12774859749145" height="89.12774859749145" width="63.519115846740206"><g><svg xmlns="http://www.w3.org/2000/svg" xmlns:xlink="http://www.w3.org/1999/xlink" version="1.1" x="0" y="0" viewBox="15.709000000000001 3.771 68.58 96.229" enable-background="new 0 0 100 100" xml:space="preserve" height="89.12774859749145" width="63.519115846740206" class="icon-icon-0" data-fill-palette-color="accent" id="icon-0"><circle cx="49.999" cy="53.877" r="17" fill="#301c3b" data-fill-palette-color="accent"></circle><path d="M69.771 14.689c0 3.879-3.144 7.024-7.022 7.024V37.47c0 0-4.792-3.972-12.749-3.972-7.956 0-12.749 3.972-12.749 3.972V22.893c-3.879 0-7.022-3.145-7.022-7.024 0-3.685 2.836-6.707 6.446-6.999 1.145-2.322 3.536-3.919 6.301-3.919 0.884 0 1.729 0.164 2.509 0.461C46.706 4.388 48.281 3.771 50 3.771c1.719 0 3.293 0.618 4.514 1.641 0.779-0.297 1.625-0.461 2.51-0.461 2.256 0 4.264 1.064 5.549 2.717 0.059-0.002 0.118-0.002 0.176-0.002C66.627 7.666 69.771 10.81 69.771 14.689z" fill="#301c3b" data-fill-palette-color="accent"></path><path d="M49.5 77.484l-12.648-6.147-1.841 3.403h-7.498c-6.519 0-11.804 5.285-11.804 11.804V100h21.415V83.563L49.5 77.484z" fill="#301c3b" data-fill-palette-color="accent"></path><path d="M72.485 74.74h-7.498l-1.62-2.955L38.125 84.187V100h46.164V86.544C84.289 80.025 79.005 74.74 72.485 74.74zM40.508 99.446c-0.854 0-1.545-0.691-1.545-1.544s0.691-1.544 1.545-1.544c0.853 0 1.544 0.691 1.544 1.544S41.36 99.446 40.508 99.446zM40.508 87.633c-0.854 0-1.545-0.691-1.545-1.544s0.691-1.544 1.545-1.544c0.853 0 1.544 0.691 1.544 1.544S41.36 87.633 40.508 87.633zM60.67 99.446c-0.854 0-1.545-0.691-1.545-1.544s0.691-1.544 1.545-1.544c0.853 0 1.544 0.691 1.544 1.544S61.522 99.446 60.67 99.446zM60.67 87.633c-0.854 0-1.545-0.691-1.545-1.544s0.691-1.544 1.545-1.544c0.853 0 1.544 0.691 1.544 1.544S61.522 87.633 60.67 87.633z" fill="#301c3b" data-fill-palette-color="accent"></path></svg></g></svg></g><g></g></svg></g><defs></defs></svg><rect width="395.52" height="188.9408055693931" fill="none" stroke="none" visibility="hidden"></rect></g></svg></g></svg>